<?xml version="1.0" encoding="utf-8"?>
<!-- Generator: Adobe Illustrator 17.1.0, SVG Export Plug-In . SVG Version: 6.00 Build 0)  -->
<!DOCTYPE svg PUBLIC "-//W3C//DTD SVG 1.1//EN" "http://www.w3.org/Graphics/SVG/1.1/DTD/svg11.dtd">
<svg version="1.1" id="Layer_1" xmlns="http://www.w3.org/2000/svg" xmlns:xlink="http://www.w3.org/1999/xlink" x="0px" y="0px"
	 viewBox="0 0 13 16" enable-background="new 0 0 13 16" xml:space="preserve">
<title>Fill-1-Copy-2-1</title>
<path fill="#A0A5AA" d="M4.8,8.1c-0.2-0.5-0.3-1-0.4-1.5C4.1,4.7,4.5,3,5.7,1.4c0.3-0.4,0.6-0.7,0.9-1c0,0,0.1-0.1,0.1-0.1
	c0.1,0,0.2-0.1,0.3,0c0.1,0.1,0,0.2,0,0.2C6.7,1.8,6.7,3.2,7.2,4.6c0.1,0.3,0.3,0.6,0.4,0.9c0,0.1,0.1,0.1,0.2,0.1
	c0.5-0.1,0.8-0.4,1-0.8C9,4.4,9.1,4,9.2,3.6c0.1-0.3,0.2-0.4,0.4-0.2c0.7,0.5,1.3,1.2,1.6,2c0.7,1.4,0.7,2.8,0.2,4.3
	c-1,2.6-3.7,4.1-6.4,3.3c-2.5-0.7-4.2-3.2-3.8-5.9c0.2-1.4,0.9-2.6,1.9-3.5c0.1,0,0.1-0.1,0.2-0.1c0.1,0,0.1,0,0.2,0
	c0.1,0.1,0,0.1,0,0.2C3.4,4.3,3.3,4.9,3.2,5.5c0,0.6,0.1,1.2,0.4,1.7C3.9,7.6,4.2,8,4.8,8.1L4.8,8.1z"/>
</svg>
