<svg width="111" height="107" viewBox="0 0 111 107" fill="none" xmlns="http://www.w3.org/2000/svg">
<path d="M45.5714 0.579569C46.228 0.215121 46.9173 -0.311295 47.6866 0.235819C48.4313 0.765412 48.0793 1.51466 47.9142 2.19676C45.0924 13.1831 45.6591 24.7666 49.5382 35.4253C50.5008 37.9344 51.6057 40.3869 52.8478 42.77C52.972 43.1003 53.2118 43.3746 53.5226 43.5415C53.8333 43.7082 54.1945 43.7562 54.5382 43.6772C58.6626 43.2232 61.15 40.5934 63.0724 37.228C64.6628 34.2697 65.7111 31.0502 66.1661 27.7221C66.6052 25.072 67.674 24.6287 69.9054 26.3081C75.5458 30.4604 80.1176 35.8913 83.2501 42.1509C82.1799 42.0523 81.096 41.9995 80.0001 41.9995C60.6702 41.9995 45.0003 57.6697 45.0001 76.9995C45.0001 87.7723 49.8683 97.4073 57.5236 103.828C49.7436 106.361 41.3601 106.689 33.3243 104.69C22.855 102.085 13.7101 95.716 7.63293 86.7983C1.55586 77.8807 -1.02879 67.0379 0.372184 56.3364C1.85459 44.643 7.47313 35.1388 16.4005 27.5864C16.8747 27.2198 17.4121 26.9424 17.9855 26.768C18.2622 26.642 18.5706 26.6018 18.8702 26.6538C19.1698 26.7058 19.447 26.8471 19.6652 27.0591C20.1926 27.5926 20.0018 28.1391 19.7736 28.729C17.9306 33.2055 16.9034 37.9763 16.7394 42.8149C16.5381 47.505 17.5722 52.1658 19.7394 56.3296C20.7744 58.3262 22.2124 60.0862 23.962 61.4985C25.7105 62.9099 27.7328 63.9424 29.9005 64.5327C28.3078 60.68 27.1482 56.6616 26.4444 52.5522C23.8343 36.7713 27.2461 22.4521 36.8028 9.64207C39.1133 6.57944 41.7524 3.77873 44.672 1.29051C44.9476 1.02451 45.2488 0.786026 45.5714 0.579569Z" fill="black"/>
<path d="M53.5952 64.7914L67.9111 103.983C57.897 99.1335 51 88.8703 51 77C51 72.6438 51.9309 68.5273 53.5952 64.7914ZM101.254 75.4915C101.254 71.7838 99.9281 69.218 98.7856 67.2162C97.2623 64.7491 95.8378 62.6485 95.8378 60.1814C95.8378 57.4182 97.9252 54.8524 100.873 54.8524C101 54.8524 101.127 54.8665 101.268 54.8806C95.9224 49.9887 88.8138 47 81 47C70.5204 47 61.2962 52.3712 55.9224 60.5197C56.6276 60.5479 57.2906 60.562 57.8547 60.562C60.9859 60.562 65.8519 60.1814 65.8519 60.1814C67.4739 60.0827 67.6573 62.4652 66.0494 62.6485C66.0494 62.6485 64.4274 62.8318 62.622 62.9305L73.5529 95.4117L80.1255 75.7312L75.457 62.9305C73.835 62.8318 72.3117 62.6485 72.3117 62.6485C70.6897 62.5498 70.8872 60.0827 72.4951 60.1814C72.4951 60.1814 77.4457 60.562 80.3935 60.562C83.5247 60.562 88.3907 60.1814 88.3907 60.1814C90.0127 60.0827 90.196 62.4652 88.5881 62.6485C88.5881 62.6485 86.9661 62.8318 85.1608 62.9305L96.007 95.172L98.9972 85.1767C100.267 81.032 101.254 78.0573 101.254 75.4915ZM81.5219 79.6222L72.5233 105.774C75.2172 106.563 78.0522 107 81 107C84.4979 107 87.8406 106.394 90.9577 105.294C90.8731 105.167 90.8025 105.026 90.7461 104.885L81.5219 79.6222ZM107.333 62.6062C107.46 63.5648 107.53 64.5799 107.53 65.6936C107.53 68.7387 106.966 72.1504 105.245 76.4361L96.0776 102.926C105.006 97.7237 111 88.0667 111 77C111 71.7838 109.674 66.8778 107.333 62.6062Z" fill="black"/>
</svg>
